<?xml version="1.0" encoding="utf-8"?>
<!-- Generator: Adobe Illustrator 21.0.0, SVG Export Plug-In . SVG Version: 6.00 Build 0)  -->
<svg version="1.1" id="Calque_1" xmlns="http://www.w3.org/2000/svg" xmlns:xlink="http://www.w3.org/1999/xlink" x="0px" y="0px"
	 viewBox="0 0 283.5 89.7" style="enable-background:new 0 0 283.5 89.7;" xml:space="preserve">
<style type="text/css">
	.st0{fill:#343434;}
	.st1{fill:url(#SVGID_1_);}
	.st2{opacity:0.26;}
	.st3{fill:#020203;}
	.st4{fill:#FFFFFF;}
</style>
<g>
	<g>
		<path class="st0" d="M74.6,40.4l0.6-1c1.3,1.5,3.9,2.5,6.6,2.5c4,0,5.8-1.8,5.8-3.9c0-6-12.6-2.4-12.6-9.9c0-2.8,2.2-5.4,7.2-5.4
			c2.2,0,4.5,0.7,6.1,1.8l-0.6,1.2c-1.6-1.2-3.7-1.6-5.5-1.6c-3.9,0-5.7,1.8-5.7,4c0,6,12.6,2.5,12.6,9.7c0,2.8-2.2,5.4-7.2,5.4
			C79,43.1,76.1,42,74.6,40.4z"/>
		<path class="st0" d="M106.7,37.2H95l-2.5,5.7h-1.6l9.3-20.2h1.5l9.3,20.2h-1.6L106.7,37.2z M106.2,36L101,24.4L95.7,36H106.2z"/>
		<path class="st0" d="M114.6,22.9h1.5v18.8h11.5v1.3h-13C114.6,43.1,114.6,22.9,114.6,22.9z"/>
		<path class="st0" d="M145.2,41.6v1.3h-13.9V22.7h13.5v1.3h-12V32h10.8v1.3h-10.8v8.2L145.2,41.6L145.2,41.6z"/>
		<path class="st0" d="M148.5,40.4l0.6-1c1.3,1.5,3.9,2.5,6.6,2.5c4,0,5.8-1.8,5.8-3.9c0-6-12.6-2.4-12.6-9.9c0-2.8,2.2-5.4,7.2-5.4
			c2.2,0,4.5,0.7,6.1,1.8l-0.6,1.2c-1.6-1.2-3.7-1.6-5.5-1.6c-3.9,0-5.7,1.8-5.7,4c0,6,12.6,2.5,12.6,9.7c0,2.8-2.2,5.4-7.2,5.4
			C152.9,43.1,150,42,148.5,40.4z"/>
		<path class="st0" d="M74.2,56.8c0-6.1,4.6-10.5,11.1-10.5c3.7,0,6.7,1.3,8.7,3.7l-3.6,3.3c-1.2-1.5-2.8-2.4-4.8-2.4
			c-3.3,0-5.5,2.2-5.5,5.7c0,3.4,2.2,5.7,5.5,5.7c1.9,0,3.4-0.9,4.8-2.4l3.6,3.3C92,65.6,89,67,85.3,67C78.8,67.3,74.2,63,74.2,56.8
			z"/>
		<path class="st0" d="M115.6,46.8V67h-5.7v-7.8h-7.8V67h-5.7V46.8h5.7v7.6h7.8v-7.6H115.6z"/>
		<path class="st0" d="M133.1,63h-8.5l-1.6,3.9h-5.8l8.8-20.2h5.5l9,20.2h-6L133.1,63z M131.5,58.8l-2.5-6.4l-2.5,6.4H131.5z"/>
		<path class="st0" d="M142.3,46.8h5.7v15.6h9.6v4.5h-15.3V46.8z"/>
		<path class="st0" d="M159.8,46.8h5.7v15.6h9.6v4.5h-15.3V46.8z"/>
		<path class="st0" d="M193.6,62.5v4.3h-16.2V46.6h15.9V51h-10.2v3.4h9v4.2h-9v3.7h10.5V62.5z"/>
		<path class="st0" d="M215.9,46.8V67h-4.6l-8.8-10.8V67h-5.5V46.8h4.6l8.8,10.8V46.8H215.9z"/>
		<path class="st0" d="M233.4,56.4h5.1v8.4c-2.4,1.6-5.5,2.5-8.5,2.5c-6.4,0-11.1-4.3-11.1-10.5s4.6-10.5,11.2-10.5
			c3.7,0,6.9,1.3,8.8,3.7l-3.6,3.3c-1.3-1.5-3-2.2-4.9-2.2c-3.4,0-5.7,2.2-5.7,5.7c0,3.4,2.2,5.7,5.7,5.7c1,0,2.1-0.1,3.1-0.6v-5.5
			H233.4z"/>
		<path class="st0" d="M258.2,62.5v4.3H242V46.6h15.9V51h-10.2v3.4h9v4.2h-9v3.7h10.5V62.5z"/>
	</g>
	<g>
		
			<linearGradient id="SVGID_1_" gradientUnits="userSpaceOnUse" x1="35.2842" y1="68.9012" x2="55.0941" y2="35.7311" gradientTransform="matrix(1 0 0 -1 0 96)">
			<stop  offset="0" style="stop-color:#E7255A"/>
			<stop  offset="0.1115" style="stop-color:#D32458"/>
			<stop  offset="0.3415" style="stop-color:#A42752"/>
			<stop  offset="0.6706" style="stop-color:#5C2346"/>
			<stop  offset="1" style="stop-color:#1D1C37"/>
		</linearGradient>
		<path class="st1" d="M63,58.6c1.9-1,3.4-3.7,3.4-5.8V36.9c0-2.1-1.5-4.8-3.4-5.8l-13.8-7.9c-1.9-1-4.9-1-6.7,0l-13.8,7.9
			c-1.9,1-3.4,3.7-3.4,5.8v15.7c0,2.1,1.5,4.8,3.4,5.8l13.8,7.9c1.9,1,4.9,1,6.7,0L63,58.6z"/>
		<g>
			<g class="st2">
				<path class="st3" d="M43.5,53.2V54c1.9-0.7,2.4-5.4,2.5-6l1.2-0.6c0.1,2.2-0.7,8.2-4.8,10.2c-0.9,0.4-0.3,0.1-1.2,0.6
					c-4.6,2.1-7.2-1.2-6.9-1.6c1,0.6,1.9,0.7,4-0.1c0.9-0.4,1.5-1.6,0.9-3.1c-0.1-0.3-0.3-0.9-0.4-1c-2.7-5.2-4.8-13.9,2.1-16.9
					c0.9-0.4,3,1.2,3.7,2.4c-1.2,0.6-4,2.8-3.6,7.6C41.3,48.6,43.2,50.8,43.5,53.2z"/>
				<path class="st3" d="M55.8,40.8c-0.7,0.4-2.1,0-1.9-1.2c1.8,0.4,3.6-5.7,1.8-5.4c-4.6,0.7-10,19.1-2.2,18
					c3.9-0.6,4.6-4.9,4.5-6.1l1.5-0.3c0.1,4.9-2.7,7.8-7.3,8.5h-0.1c-5.4,0.9-7.6-6-6.1-11.5c1-4.3,3.7-9.1,8.1-10
					C60.9,31.7,57.9,39.5,55.8,40.8z"/>
			</g>
			<g>
				<path class="st4" d="M42.5,52.3v0.7c1.9-0.7,2.4-5.4,2.5-6l1.2-0.6c0.1,2.2-0.7,8.2-4.8,10.2c-0.9,0.4-0.3,0.1-1.2,0.6
					c-4.6,2.1-7.2-1.2-6.9-1.6c1,0.6,1.9,0.7,4-0.1c0.9-0.4,1.5-1.6,0.9-3.1c-0.1-0.3-0.3-0.9-0.4-1c-2.7-5.2-4.8-13.9,2.1-16.9
					c0.9-0.4,3,1.2,3.7,2.4c-1.2,0.6-4,2.8-3.6,7.6C40.2,47.5,42.3,49.8,42.5,52.3z"/>
				<path class="st4" d="M54.9,39.9c-0.7,0.4-2.1,0-1.9-1.2c1.8,0.4,3.6-5.7,1.8-5.4c-4.6,0.7-10,19.1-2.2,18
					c3.9-0.6,4.6-4.9,4.5-6.1l1.5-0.3c0.1,4.9-2.7,7.8-7.3,8.5H51c-5.4,0.9-7.6-6-6.1-11.5c1-4.3,3.7-9.1,8.1-10
					C59.8,30.6,57,38.6,54.9,39.9z"/>
			</g>
		</g>
	</g>
</g>
</svg>
