<?xml version="1.0" encoding="utf-8"?>
<!-- Generator: Adobe Illustrator 23.0.2, SVG Export Plug-In . SVG Version: 6.00 Build 0)  -->
<svg version="1.1" id="Calque_1" xmlns="http://www.w3.org/2000/svg" xmlns:xlink="http://www.w3.org/1999/xlink" x="0px" y="0px"
	 viewBox="0 0 841.89 595.28" style="enable-background:new 0 0 841.89 595.28;" xml:space="preserve">
<style type="text/css">
	.st0{fill:#FFFFFF;}
	.st1{opacity:0.22;fill:#B2579C;}
	.st2{fill:#652255;}
	.st3{fill:#474441;}
	.st4{fill:none;}
</style>
<g>
	<g>
		<path class="st0" d="M389.22,347L389.22,347c-9.17,7.65-20.93,12.29-33.76,12.4c14.61-8.96,62.05-41.83,25.67-70.86
			c7.39,6.12,37.03,35.97-38.69,69.39c-6.61-1.58-12.75-4.39-18.15-8.17c16.22-4.58,102.47-31.47,41.69-70.75
			C365.97,279.02,425.67,298.83,389.22,347z"/>
		<path class="st1" d="M355.45,359.41c-0.17,0-0.34,0.01-0.51,0.01c-0.52,0-1.02-0.01-1.53-0.02c-0.13-0.01-0.25-0.01-0.38-0.01
			c-0.43-0.01-0.86-0.04-1.29-0.06c-0.47-0.02-0.93-0.06-1.38-0.1c-0.15-0.01-0.29-0.02-0.44-0.04c-0.33-0.04-0.66-0.07-1-0.11
			c-0.18-0.01-0.37-0.04-0.55-0.06c-0.45-0.06-0.9-0.12-1.35-0.18c-1.55-0.23-3.08-0.52-4.58-0.89
			c75.71-33.42,46.07-63.27,38.69-69.39C417.5,317.58,370.06,350.44,355.45,359.41z"/>
		<path class="st2" d="M355.45,359.41c-0.17,0-0.34,0.01-0.51,0.01c-0.52,0-1.02-0.01-1.53-0.02c-0.13-0.01-0.25-0.01-0.38-0.01
			c-0.43-0.01-0.86-0.04-1.29-0.06c-0.47-0.02-0.93-0.06-1.38-0.1c-0.15-0.01-0.29-0.02-0.44-0.04c-0.33-0.04-0.66-0.07-1-0.11
			c-0.18-0.01-0.37-0.04-0.55-0.06c-0.45-0.06-0.9-0.12-1.35-0.18c-1.55-0.23-3.08-0.53-4.58-0.89
			c75.71-33.42,46.07-63.27,38.69-69.39C417.5,317.58,370.06,350.44,355.45,359.41z"/>
		<path class="st2" d="M408.48,305.88c0,0.52-0.01,1.03-0.02,1.55c-0.01,0.41-0.03,0.83-0.05,1.24c-0.01,0.27-0.03,0.53-0.05,0.79
			c-0.02,0.34-0.04,0.68-0.08,1.02v0.02c-0.04,0.44-0.08,0.89-0.13,1.33c-0.01,0.14-0.03,0.28-0.05,0.42
			c-0.03,0.32-0.07,0.64-0.12,0.96c-0.01,0.14-0.04,0.29-0.06,0.43c-0.06,0.44-0.13,0.89-0.21,1.33c-0.06,0.36-0.13,0.72-0.2,1.07
			c-0.04,0.19-0.07,0.38-0.11,0.57c-0.09,0.43-0.18,0.85-0.28,1.28c-0.11,0.46-0.21,0.91-0.33,1.36c-0.01,0.03-0.01,0.06-0.02,0.08
			c-0.12,0.48-0.25,0.95-0.39,1.43c-0.13,0.47-0.28,0.93-0.42,1.38c0,0.02-0.01,0.04-0.02,0.06c-0.14,0.45-0.29,0.9-0.45,1.36
			c-0.13,0.4-0.28,0.78-0.43,1.18c-0.13,0.37-0.28,0.74-0.43,1.11c-0.08,0.23-0.18,0.47-0.28,0.69c-0.02,0.06-0.05,0.11-0.07,0.17
			c-0.68,1.6-1.43,3.16-2.25,4.68c-0.04,0.07-0.08,0.15-0.12,0.22c-0.22,0.4-0.44,0.79-0.67,1.18c-0.24,0.41-0.48,0.82-0.73,1.22
			c-0.01,0.02-0.02,0.04-0.03,0.05c-0.22,0.35-0.44,0.69-0.66,1.04c-0.06,0.08-0.11,0.18-0.18,0.27c-0.18,0.28-0.37,0.55-0.55,0.83
			c-0.7,1.01-1.43,2-2.2,2.96c-0.2,0.26-0.41,0.52-0.62,0.77c-0.54,0.66-1.11,1.31-1.68,1.94c-0.25,0.28-0.51,0.55-0.77,0.83
			c-0.05,0.05-0.11,0.11-0.16,0.16c-0.23,0.23-0.45,0.47-0.69,0.7c-0.08,0.08-0.16,0.17-0.25,0.25c-0.22,0.23-0.44,0.44-0.66,0.65
			c-0.91,0.88-1.85,1.72-2.83,2.54c36.45-48.17-23.25-67.98-23.25-67.98c60.79,39.27-25.46,66.16-41.69,70.75h-0.01
			c-0.2-0.14-0.4-0.28-0.59-0.43c-0.25-0.18-0.52-0.37-0.77-0.56c-0.88-0.66-1.75-1.35-2.59-2.07c-0.25-0.21-0.51-0.43-0.76-0.66
			c-0.27-0.23-0.54-0.47-0.81-0.73c-0.25-0.23-0.49-0.45-0.73-0.69c-0.31-0.29-0.61-0.59-0.92-0.9c-0.3-0.3-0.6-0.61-0.9-0.92
			c-0.29-0.3-0.57-0.61-0.85-0.91c-0.01-0.01-0.02-0.03-0.04-0.04c-0.24-0.27-0.48-0.54-0.72-0.81c-0.99-1.14-1.93-2.31-2.82-3.52
			c-0.28-0.37-0.54-0.74-0.8-1.12c-0.3-0.43-0.6-0.87-0.88-1.31c-0.29-0.44-0.57-0.88-0.85-1.33c-0.55-0.9-1.07-1.82-1.58-2.76
			c-0.25-0.47-0.49-0.94-0.73-1.41c-0.23-0.48-0.47-0.96-0.69-1.44c-0.22-0.47-0.42-0.95-0.63-1.43c-0.18-0.43-0.37-0.87-0.54-1.31
			c-0.1-0.25-0.2-0.51-0.29-0.76c-0.08-0.19-0.15-0.38-0.21-0.58c-0.08-0.21-0.16-0.43-0.23-0.65c-0.13-0.4-0.27-0.79-0.4-1.19
			c-0.01-0.04-0.03-0.08-0.04-0.11c-0.16-0.49-0.3-0.98-0.45-1.48c-0.18-0.64-0.35-1.28-0.5-1.92c-0.08-0.32-0.16-0.65-0.23-0.98
			c-0.06-0.24-0.11-0.48-0.16-0.72c-0.06-0.3-0.12-0.59-0.18-0.89c-0.03-0.13-0.06-0.27-0.08-0.4c-0.07-0.38-0.14-0.76-0.2-1.14
			c-0.12-0.73-0.23-1.47-0.31-2.21c-0.06-0.4-0.1-0.81-0.14-1.22c-0.02-0.2-0.04-0.4-0.05-0.61c-0.04-0.33-0.06-0.67-0.08-1
			c-0.01-0.16-0.03-0.33-0.04-0.5c-0.03-0.49-0.05-0.97-0.06-1.46c-0.02-0.57-0.03-1.13-0.03-1.7c0-29.57,23.97-53.53,53.53-53.53
			C384.5,252.35,408.48,276.32,408.48,305.88z"/>
		<path class="st3" d="M431.55,359.4c1.16,0.47,2.44,0.71,3.8,0.71c1.35,0,2.62-0.24,3.77-0.71c1.15-0.47,2.21-1.19,3.15-2.13
			c0.94-0.94,1.66-2,2.13-3.15c0.47-1.15,0.71-2.42,0.71-3.77c0-1.36-0.24-2.64-0.71-3.79c-0.47-1.15-1.19-2.21-2.13-3.14
			c-0.94-0.93-2.02-1.64-3.19-2.11c-1.17-0.47-2.47-0.7-3.86-0.7c-1.73,0-3.35,0.44-4.84,1.29c-1.49,0.86-2.67,2.06-3.53,3.58
			c-0.86,1.51-1.29,3.18-1.29,4.95c0,1.33,0.24,2.58,0.71,3.72c0.47,1.14,1.19,2.19,2.13,3.13
			C429.33,358.22,430.39,358.93,431.55,359.4z M428.46,348.49c0.16-0.61,0.39-1.19,0.7-1.73c0.31-0.54,0.69-1.04,1.12-1.47
			c0.43-0.43,0.93-0.82,1.49-1.14c1.11-0.64,2.29-0.97,3.52-0.97c1.26,0,2.46,0.33,3.59,0.97c1.12,0.64,2,1.51,2.62,2.58
			c0.62,1.07,0.93,2.29,0.93,3.61c0,1.34-0.31,2.57-0.93,3.66c-0.31,0.54-0.68,1.04-1.11,1.46c-0.43,0.43-0.93,0.8-1.48,1.12
			c-1.1,0.63-2.32,0.95-3.62,0.95c-0.97,0-1.88-0.17-2.71-0.51c-0.83-0.34-1.59-0.86-2.28-1.55c-0.69-0.68-1.21-1.45-1.55-2.29
			c-0.34-0.83-0.52-1.76-0.52-2.76C428.22,349.75,428.3,349.1,428.46,348.49z"/>
		<path class="st3" d="M376.58,359.66c0.16,0,0.31-0.09,0.38-0.24c0,0,2.44-5.16,2.65-5.6h7.12c0.21,0.44,2.68,5.6,2.68,5.6
			c0.07,0.15,0.22,0.24,0.38,0.24h1.92c0.14,0,0.28-0.07,0.36-0.2c0.04-0.07,0.07-0.15,0.07-0.23c0-0.06-0.01-0.12-0.04-0.18
			l-8.28-17.76c-0.07-0.15-0.22-0.24-0.38-0.24h-0.44c-0.16,0-0.31,0.09-0.38,0.24l-8.39,17.76c-0.03,0.06-0.04,0.12-0.04,0.18
			c0,0.08,0.02,0.16,0.07,0.23c0.08,0.12,0.21,0.2,0.36,0.2H376.58z M383.21,346.24c0.52,1.11,1.96,4.16,2.36,5.02h-4.74
			C381.24,350.4,382.68,347.34,383.21,346.24z"/>
		<path class="st3" d="M416.56,359.66h1.81c0.23,0,0.42-0.19,0.42-0.42v-15.6h3.54c0.23,0,0.42-0.19,0.42-0.42v-1.74
			c0-0.23-0.19-0.42-0.42-0.42h-9.73c-0.23,0-0.42,0.19-0.42,0.42v1.74c0,0.23,0.19,0.42,0.42,0.42h3.54v15.6
			C416.14,359.47,416.33,359.66,416.56,359.66z"/>
		<path class="st3" d="M398.16,341.05h-1.78c-0.23,0-0.42,0.19-0.42,0.42v10.72c0,1.86,0.11,3.13,0.35,3.87
			c0.37,1.22,1.12,2.21,2.22,2.94c1.09,0.73,2.41,1.1,3.92,1.1c1.41,0,2.63-0.4,3.63-1.18c0.99-0.77,1.67-1.7,2-2.76
			c0.32-1.02,0.48-2.35,0.48-3.97v-10.72c0-0.23-0.19-0.42-0.42-0.42h-1.78c-0.23,0-0.42,0.19-0.42,0.42v10.72
			c0,1.69-0.09,2.38-0.17,2.67c-0.15,0.57-0.39,1.05-0.72,1.45c-0.32,0.39-0.72,0.7-1.2,0.92c-0.48,0.22-0.99,0.34-1.51,0.34
			c-0.61,0-1.23-0.15-1.84-0.44c-0.6-0.28-1.04-0.63-1.32-1.04c-0.28-0.41-0.47-0.94-0.54-1.57c0,0,0-0.01,0-0.01
			c-0.03-0.2-0.07-0.77-0.07-2.32v-10.72C398.58,341.24,398.39,341.05,398.16,341.05z"/>
		<path class="st3" d="M523.3,341.05h-1.77c-0.23,0-0.42,0.19-0.42,0.42v17.76c0,0.23,0.19,0.42,0.42,0.42h8.61
			c0.23,0,0.42-0.19,0.42-0.42v-1.71c0-0.23-0.19-0.42-0.42-0.42h-6.41v-15.62C523.72,341.24,523.53,341.05,523.3,341.05z"/>
		<path class="st3" d="M544.99,341.05h-10.18c-0.23,0-0.42,0.19-0.42,0.42v17.76c0,0.23,0.19,0.42,0.42,0.42h10.11
			c0.23,0,0.42-0.19,0.42-0.42v-1.74c0-0.23-0.19-0.42-0.42-0.42h-7.91v-6.13h7.91c0.23,0,0.42-0.19,0.42-0.42v-1.74
			c0-0.23-0.19-0.42-0.42-0.42h-7.91v-4.72h7.98c0.23,0,0.42-0.19,0.42-0.42v-1.74C545.42,341.24,545.23,341.05,544.99,341.05z"/>
		<path class="st3" d="M515.6,359.66c0.23,0,0.42-0.19,0.42-0.42v-17.76c0-0.23-0.19-0.42-0.42-0.42h-1.77
			c-0.23,0-0.42,0.19-0.42,0.42v17.76c0,0.23,0.19,0.42,0.42,0.42H515.6z"/>
		<path class="st3" d="M467.17,359.29c0.03,0.21,0.21,0.37,0.42,0.37h1.74c0.12,0,0.24-0.05,0.32-0.15c0.07-0.08,0.1-0.18,0.1-0.28
			c0-0.02,0-0.04,0-0.06l-2.56-17.76c-0.03-0.21-0.21-0.36-0.42-0.36h-0.28c-0.16,0-0.31,0.09-0.38,0.24c0,0-6.09,12.42-6.77,13.8
			c-0.68-1.38-6.84-13.81-6.84-13.81c-0.07-0.14-0.22-0.24-0.38-0.24h-0.29c-0.21,0-0.39,0.16-0.42,0.36l-2.54,17.76
			c0,0.02,0,0.04,0,0.06c0,0.1,0.04,0.2,0.1,0.28c0.08,0.09,0.2,0.15,0.32,0.15H451c0.21,0,0.39-0.16,0.42-0.37
			c0,0,1.26-9.26,1.56-11.43c1,2.02,5.74,11.56,5.74,11.56c0.07,0.14,0.22,0.24,0.38,0.24h0.45c0.16,0,0.31-0.09,0.38-0.24
			c0,0,4.67-9.46,5.67-11.47C465.91,350.13,467.17,359.29,467.17,359.29z"/>
		<path class="st3" d="M479.48,359.4c1.16,0.47,2.44,0.71,3.8,0.71c1.35,0,2.62-0.24,3.77-0.71c1.15-0.47,2.21-1.19,3.15-2.13
			c0.94-0.94,1.66-2,2.13-3.15c0.47-1.15,0.71-2.42,0.71-3.77c0-1.36-0.24-2.64-0.71-3.79c-0.47-1.15-1.19-2.21-2.13-3.14
			c-0.94-0.93-2.02-1.64-3.19-2.11c-1.17-0.47-2.47-0.7-3.86-0.7c-1.73,0-3.36,0.44-4.84,1.29c-1.48,0.86-2.67,2.06-3.53,3.58
			c-0.86,1.51-1.29,3.18-1.29,4.95c0,1.33,0.24,2.58,0.71,3.72c0.47,1.14,1.19,2.19,2.13,3.13
			C477.26,358.22,478.32,358.93,479.48,359.4z M476.39,348.49c0.15-0.61,0.39-1.19,0.7-1.73c0.31-0.54,0.69-1.04,1.12-1.47
			c0.43-0.43,0.93-0.82,1.49-1.14c0.55-0.32,1.13-0.57,1.72-0.73c0.58-0.16,1.19-0.24,1.81-0.24c1.26,0,2.46,0.33,3.59,0.97
			c0.56,0.32,1.07,0.7,1.5,1.13c0.43,0.43,0.81,0.91,1.12,1.45c0.62,1.07,0.93,2.29,0.93,3.61c0,1.34-0.31,2.57-0.93,3.66
			c-0.31,0.54-0.68,1.04-1.11,1.46c-0.43,0.43-0.93,0.8-1.48,1.12c-1.1,0.63-2.32,0.95-3.62,0.95c-0.97,0-1.88-0.17-2.71-0.51
			c-0.83-0.34-1.59-0.86-2.28-1.55c-0.69-0.68-1.21-1.45-1.55-2.29c-0.34-0.83-0.52-1.76-0.52-2.76
			C476.15,349.75,476.23,349.1,476.39,348.49z"/>
		<path class="st3" d="M507.06,348.19c0.42-0.71,0.64-1.51,0.64-2.37c0-0.92-0.24-1.77-0.72-2.53c-0.48-0.76-1.15-1.33-1.98-1.7
			c-0.82-0.36-1.94-0.54-3.42-0.54h-3.5c-0.23,0-0.42,0.19-0.42,0.42v17.76c0,0.23,0.19,0.42,0.42,0.42h4.88
			c1.86,0,3.37-0.54,4.49-1.6c1.12-1.06,1.7-2.38,1.7-3.92c0-0.76-0.15-1.48-0.45-2.13c-0.3-0.65-0.73-1.22-1.27-1.68
			c-0.38-0.32-0.88-0.62-1.48-0.88C506.4,349.1,506.78,348.67,507.06,348.19z M500.24,343.64h1.63c1.14,0,1.96,0.2,2.45,0.6
			c0.47,0.38,0.7,0.9,0.7,1.58c0,0.52-0.14,0.98-0.43,1.41c-0.29,0.43-0.68,0.73-1.19,0.93c-0.53,0.21-1.39,0.31-2.57,0.31h-0.59
			V343.64z M506.45,354.18c0,0.55-0.16,1.04-0.48,1.51c-0.32,0.48-0.74,0.81-1.27,1.04c-0.55,0.23-1.46,0.35-2.69,0.35h-1.78v-5.96
			h0.58c1.46,0,2.49,0.07,3.06,0.2c0.81,0.2,1.45,0.56,1.91,1.08C506.23,352.9,506.45,353.49,506.45,354.18z"/>
		<path class="st2" d="M470.23,280.1h-5.59c-0.34,0-0.64,0.2-0.78,0.51c0,0-15.1,34.64-16.53,37.91
			c-1.41-3.28-16.26-37.91-16.26-37.91c-0.13-0.31-0.44-0.51-0.78-0.51h-5.59c-0.28,0-0.55,0.14-0.71,0.38
			c-0.09,0.14-0.14,0.3-0.14,0.47c0,0.11,0.02,0.23,0.07,0.33l22.05,51.4c0.13,0.31,0.44,0.51,0.78,0.51h1.12
			c0.34,0,0.64-0.2,0.78-0.51l22.36-51.4c0.05-0.11,0.07-0.22,0.07-0.34c0-0.16-0.05-0.32-0.14-0.46
			C470.78,280.25,470.52,280.1,470.23,280.1z"/>
		<path class="st2" d="M489.37,293.48h-4.89c-0.47,0-0.85,0.38-0.85,0.85v38.02c0,0.47,0.38,0.85,0.85,0.85h4.89
			c0.47,0,0.85-0.38,0.85-0.85v-38.02C490.22,293.86,489.84,293.48,489.37,293.48z"/>
		<path class="st2" d="M544.57,293.48h-4.82c-0.47,0-0.85,0.38-0.85,0.85v4.57c-0.54-0.61-1.1-1.18-1.68-1.7
			c-1.16-1.04-2.41-1.92-3.73-2.61c-1.32-0.69-2.74-1.22-4.21-1.57c-1.47-0.35-3.03-0.52-4.65-0.52c-1.4,0-2.77,0.13-4.07,0.38
			c-1.3,0.25-2.58,0.64-3.78,1.14c-1.2,0.51-2.37,1.15-3.47,1.91c-1.1,0.76-2.16,1.65-3.15,2.65c-0.99,1.01-1.88,2.08-2.62,3.19
			c-0.75,1.12-1.38,2.3-1.88,3.51c-0.5,1.22-0.88,2.51-1.13,3.83c-0.25,1.31-0.37,2.7-0.37,4.11c0,1.44,0.13,2.85,0.37,4.19
			c0.25,1.34,0.62,2.65,1.12,3.88c0.5,1.23,1.12,2.43,1.86,3.55c0.74,1.12,1.62,2.2,2.6,3.21c0.98,1.01,2.04,1.91,3.13,2.66
			c1.09,0.76,2.25,1.41,3.45,1.91c1.2,0.51,2.46,0.89,3.76,1.15c1.3,0.25,2.66,0.38,4.05,0.38c1.57,0,3.1-0.17,4.55-0.49
			c1.45-0.33,2.87-0.83,4.19-1.48c1.33-0.65,2.6-1.48,3.8-2.45c0.64-0.52,1.27-1.1,1.88-1.72v4.32c0,0.47,0.38,0.85,0.85,0.85h4.82
			c0.47,0,0.85-0.38,0.85-0.85v-38.02C545.42,293.86,545.04,293.48,544.57,293.48z M538.76,317.44c-0.3,1.22-0.76,2.38-1.37,3.46
			c-0.6,1.08-1.35,2.06-2.21,2.91c-0.86,0.86-1.87,1.61-3,2.25c-1.13,0.64-2.31,1.12-3.5,1.44c-1.19,0.32-2.43,0.48-3.69,0.48
			c-1.24,0-2.47-0.16-3.63-0.48c-1.16-0.32-2.31-0.8-3.39-1.44c-1.09-0.64-2.07-1.42-2.94-2.31c-0.87-0.89-1.64-1.93-2.28-3.08
			c-0.65-1.16-1.14-2.35-1.47-3.56c-0.32-1.2-0.48-2.45-0.48-3.71c0-1.27,0.16-2.52,0.48-3.73c0.32-1.2,0.81-2.39,1.45-3.54
			c0.64-1.14,1.4-2.17,2.26-3.05c0.86-0.88,1.84-1.64,2.92-2.27c1.08-0.63,2.23-1.1,3.4-1.42c1.18-0.31,2.43-0.47,3.71-0.47
			c1,0,1.98,0.09,2.89,0.26c0.91,0.17,1.8,0.44,2.63,0.78c0.83,0.34,1.64,0.78,2.39,1.3c0.76,0.52,1.49,1.14,2.17,1.83
			c0.68,0.7,1.29,1.44,1.8,2.22c0.51,0.78,0.94,1.61,1.28,2.47c0.68,1.73,1.03,3.66,1.03,5.75
			C539.22,314.9,539.06,316.21,538.76,317.44z"/>
		<path class="st2" d="M486.91,277.83c-1.32,0-2.47,0.48-3.42,1.44c-0.95,0.95-1.43,2.12-1.43,3.46c0,1.32,0.48,2.48,1.43,3.43
			c0.95,0.95,2.1,1.44,3.42,1.44c1.34,0,2.5-0.48,3.45-1.44c0.95-0.95,1.43-2.11,1.43-3.43c0-1.34-0.48-2.51-1.43-3.46
			C489.41,278.31,488.25,277.83,486.91,277.83z"/>
		<path class="st4" d="M586.7,400.94H260.13V211.07H586.7V400.94z"/>
	</g>
	<g>
		<path class="st2" d="M388.31,381.7l-1.82,1.74c-1.24-1.31-2.63-1.96-4.18-1.96c-1.31,0-2.41,0.45-3.3,1.34
			c-0.89,0.89-1.34,1.99-1.34,3.3c0,0.91,0.2,1.72,0.59,2.43c0.4,0.71,0.96,1.26,1.68,1.67c0.72,0.4,1.53,0.6,2.42,0.6
			c0.75,0,1.45-0.14,2.07-0.42s1.31-0.79,2.06-1.54l1.76,1.84c-1.01,0.99-1.96,1.67-2.86,2.05c-0.9,0.38-1.92,0.57-3.08,0.57
			c-2.13,0-3.87-0.67-5.22-2.02c-1.35-1.35-2.03-3.08-2.03-5.18c0-1.36,0.31-2.58,0.92-3.63c0.62-1.06,1.5-1.91,2.65-2.56
			s2.39-0.97,3.71-0.97c1.13,0,2.21,0.24,3.26,0.71C386.65,380.14,387.55,380.82,388.31,381.7z"/>
		<path class="st2" d="M390.51,378.95h2.52v4.93c0.5-0.43,1-0.75,1.5-0.96s1.01-0.32,1.52-0.32c1,0,1.85,0.35,2.54,1.04
			c0.59,0.6,0.88,1.48,0.88,2.65v6.68h-2.5v-4.43c0-1.17-0.06-1.96-0.17-2.38c-0.11-0.42-0.3-0.72-0.57-0.93
			c-0.27-0.21-0.6-0.31-1-0.31c-0.51,0-0.96,0.17-1.32,0.51c-0.37,0.34-0.63,0.81-0.77,1.39c-0.08,0.3-0.11,1-0.11,2.08v4.06h-2.52
			V378.95z"/>
		<path class="st2" d="M409.57,382.85h2.54v10.11h-2.54v-1.07c-0.5,0.47-0.99,0.81-1.49,1.02c-0.5,0.21-1.04,0.31-1.62,0.31
			c-1.31,0-2.44-0.51-3.39-1.52c-0.95-1.01-1.43-2.27-1.43-3.78c0-1.56,0.46-2.84,1.38-3.84c0.92-1,2.04-1.5,3.36-1.5
			c0.61,0,1.18,0.12,1.71,0.34c0.53,0.23,1.02,0.57,1.48,1.03V382.85z M406.91,384.93c-0.78,0-1.44,0.28-1.96,0.83
			c-0.52,0.55-0.78,1.27-0.78,2.13c0,0.87,0.26,1.59,0.79,2.16c0.53,0.56,1.18,0.85,1.95,0.85c0.8,0,1.46-0.28,1.98-0.83
			c0.53-0.55,0.79-1.28,0.79-2.18c0-0.88-0.26-1.59-0.79-2.14C408.37,385.21,407.71,384.93,406.91,384.93z"/>
		<path class="st2" d="M414.87,382.85h2.54v1.04c0.58-0.49,1.1-0.82,1.56-1.01c0.47-0.19,0.95-0.28,1.43-0.28
			c1,0,1.85,0.35,2.55,1.05c0.59,0.59,0.88,1.47,0.88,2.64v6.68h-2.51v-4.43c0-1.21-0.05-2.01-0.16-2.4s-0.3-0.7-0.57-0.91
			c-0.27-0.21-0.6-0.31-1-0.31c-0.51,0-0.95,0.17-1.32,0.52c-0.37,0.34-0.62,0.82-0.76,1.43c-0.07,0.32-0.11,1-0.11,2.05v4.06h-2.54
			V382.85z"/>
		<path class="st2" d="M433.96,382.85h2.53v8.66c0,1.71-0.34,2.97-1.03,3.77c-0.92,1.09-2.31,1.64-4.17,1.64
			c-0.99,0-1.83-0.12-2.5-0.37c-0.67-0.25-1.25-0.61-1.71-1.09c-0.46-0.48-0.81-1.06-1.03-1.75h2.8c0.25,0.29,0.57,0.5,0.96,0.65
			s0.85,0.22,1.38,0.22c0.68,0,1.23-0.11,1.65-0.32c0.42-0.21,0.71-0.48,0.88-0.82c0.17-0.33,0.26-0.91,0.26-1.73
			c-0.45,0.45-0.91,0.77-1.4,0.96c-0.49,0.2-1.04,0.29-1.66,0.29c-1.36,0-2.5-0.49-3.44-1.47c-0.94-0.98-1.4-2.22-1.4-3.72
			c0-1.6,0.5-2.89,1.49-3.87c0.9-0.88,1.97-1.32,3.22-1.32c0.58,0,1.13,0.11,1.65,0.32c0.52,0.21,1.04,0.57,1.56,1.06V382.85z
			 M431.32,384.96c-0.8,0-1.46,0.27-1.98,0.8c-0.52,0.54-0.78,1.21-0.78,2.02c0,0.84,0.27,1.53,0.8,2.07s1.2,0.81,2.01,0.81
			c0.79,0,1.44-0.26,1.95-0.79c0.51-0.53,0.77-1.22,0.77-2.07c0-0.84-0.26-1.53-0.77-2.05C432.8,385.23,432.14,384.96,431.32,384.96
			z"/>
		<path class="st2" d="M449.37,388.64h-8.15c0.12,0.72,0.43,1.29,0.94,1.71c0.51,0.42,1.16,0.64,1.96,0.64
			c0.95,0,1.76-0.33,2.45-0.99l2.14,1c-0.53,0.76-1.17,1.32-1.92,1.68s-1.63,0.54-2.65,0.54c-1.59,0-2.88-0.5-3.88-1.5
			c-1-1-1.5-2.25-1.5-3.76c0-1.54,0.5-2.82,1.49-3.84c0.99-1.02,2.24-1.53,3.74-1.53c1.59,0,2.89,0.51,3.88,1.53s1.5,2.37,1.5,4.04
			L449.37,388.64z M446.83,386.64c-0.17-0.56-0.5-1.02-0.99-1.38s-1.07-0.53-1.72-0.53c-0.71,0-1.33,0.2-1.86,0.59
			c-0.33,0.25-0.65,0.68-0.93,1.31H446.83z"/>
		<path class="st2" d="M451.19,382.85h7.74l-4.54,7.96h4.28v2.15h-8.18l4.56-7.97h-3.87V382.85z"/>
		<path class="st2" d="M473.54,378.95h2.54v14.02h-2.54v-1.07c-0.5,0.47-0.99,0.81-1.49,1.02c-0.5,0.21-1.04,0.31-1.62,0.31
			c-1.31,0-2.44-0.51-3.39-1.52c-0.95-1.01-1.43-2.27-1.43-3.78c0-1.56,0.46-2.84,1.38-3.84c0.92-1,2.04-1.5,3.36-1.5
			c0.61,0,1.18,0.12,1.71,0.34c0.53,0.23,1.02,0.57,1.48,1.03V378.95z M470.87,384.93c-0.78,0-1.44,0.28-1.96,0.83
			c-0.52,0.55-0.78,1.27-0.78,2.13c0,0.87,0.26,1.59,0.79,2.16c0.53,0.56,1.18,0.85,1.95,0.85c0.8,0,1.46-0.28,1.98-0.83
			c0.53-0.55,0.79-1.28,0.79-2.18c0-0.88-0.26-1.59-0.79-2.14C472.34,385.21,471.68,384.93,470.87,384.93z"/>
		<path class="st2" d="M488.97,388.64h-8.15c0.12,0.72,0.43,1.29,0.94,1.71c0.51,0.42,1.16,0.64,1.96,0.64
			c0.95,0,1.76-0.33,2.45-0.99l2.14,1c-0.53,0.76-1.17,1.32-1.92,1.68s-1.63,0.54-2.65,0.54c-1.59,0-2.88-0.5-3.88-1.5
			c-1-1-1.5-2.25-1.5-3.76c0-1.54,0.5-2.82,1.49-3.84c0.99-1.02,2.24-1.53,3.74-1.53c1.59,0,2.89,0.51,3.88,1.53s1.5,2.37,1.5,4.04
			L488.97,388.64z M486.43,386.64c-0.17-0.56-0.5-1.02-0.99-1.38s-1.07-0.53-1.72-0.53c-0.71,0-1.33,0.2-1.86,0.59
			c-0.33,0.25-0.65,0.68-0.93,1.31H486.43z"/>
		<path class="st2" d="M496.13,382.85h2.18v1.27c0.24-0.5,0.55-0.88,0.94-1.14c0.39-0.26,0.82-0.39,1.28-0.39
			c0.33,0,0.67,0.09,1.03,0.26l-0.79,2.18c-0.3-0.15-0.54-0.22-0.73-0.22c-0.39,0-0.72,0.24-0.99,0.72s-0.4,1.43-0.4,2.84l0.01,0.49
			v4.09h-2.52V382.85z"/>
		<path class="st2" d="M507.75,382.59c0.95,0,1.85,0.24,2.69,0.72c0.84,0.48,1.49,1.13,1.97,1.94c0.47,0.82,0.71,1.7,0.71,2.65
			c0,0.95-0.24,1.85-0.71,2.68c-0.47,0.83-1.12,1.48-1.94,1.95c-0.82,0.47-1.72,0.7-2.7,0.7c-1.45,0-2.69-0.52-3.71-1.55
			c-1.03-1.03-1.54-2.29-1.54-3.76c0-1.58,0.58-2.9,1.74-3.95C505.27,383.05,506.43,382.59,507.75,382.59z M507.8,384.98
			c-0.79,0-1.44,0.27-1.97,0.82c-0.52,0.55-0.79,1.25-0.79,2.11c0,0.88,0.26,1.59,0.78,2.14c0.52,0.55,1.17,0.82,1.97,0.82
			c0.79,0,1.46-0.28,1.98-0.83s0.79-1.26,0.79-2.13c0-0.87-0.26-1.57-0.78-2.11C509.27,385.25,508.6,384.98,507.8,384.98z"/>
		<path class="st2" d="M515.37,382.85h2.57v4.87c0,0.95,0.07,1.61,0.2,1.97c0.13,0.37,0.34,0.66,0.63,0.86
			c0.29,0.2,0.64,0.31,1.07,0.31c0.42,0,0.78-0.1,1.08-0.3c0.29-0.2,0.51-0.5,0.66-0.89c0.11-0.29,0.16-0.91,0.16-1.87v-4.95h2.54
			v4.28c0,1.77-0.14,2.97-0.42,3.63c-0.34,0.79-0.84,1.4-1.51,1.83c-0.66,0.42-1.51,0.64-2.53,0.64c-1.11,0-2.01-0.25-2.69-0.74
			c-0.69-0.5-1.17-1.19-1.45-2.07c-0.2-0.61-0.3-1.73-0.3-3.35V382.85z"/>
		<path class="st2" d="M527.3,379.13h2.54v3.73h1.51v2.18h-1.51v7.93h-2.54v-7.93H526v-2.18h1.3V379.13z"/>
		<path class="st2" d="M543.02,388.64h-8.15c0.12,0.72,0.43,1.29,0.94,1.71c0.51,0.42,1.16,0.64,1.96,0.64
			c0.95,0,1.76-0.33,2.45-0.99l2.14,1c-0.53,0.76-1.17,1.32-1.92,1.68s-1.63,0.54-2.65,0.54c-1.59,0-2.88-0.5-3.88-1.5
			c-1-1-1.5-2.25-1.5-3.76c0-1.54,0.5-2.82,1.49-3.84c0.99-1.02,2.24-1.53,3.74-1.53c1.59,0,2.89,0.51,3.88,1.53s1.5,2.37,1.5,4.04
			L543.02,388.64z M540.49,386.64c-0.17-0.56-0.5-1.02-0.99-1.38s-1.07-0.53-1.72-0.53c-0.71,0-1.33,0.2-1.86,0.59
			c-0.33,0.25-0.65,0.68-0.93,1.31H540.49z"/>
		<path class="st2" d="M546.65,390.32c0.4,0,0.75,0.14,1.03,0.42c0.29,0.28,0.43,0.63,0.43,1.03c0,0.4-0.14,0.75-0.43,1.03
			c-0.29,0.28-0.63,0.43-1.03,0.43c-0.4,0-0.75-0.14-1.03-0.43c-0.29-0.29-0.43-0.63-0.43-1.03c0-0.4,0.14-0.75,0.43-1.03
			C545.91,390.46,546.25,390.32,546.65,390.32z"/>
	</g>
</g>
</svg>
