<?xml version="1.0" encoding="utf-8"?>
<!-- Generator: Adobe Illustrator 21.0.0, SVG Export Plug-In . SVG Version: 6.00 Build 0)  -->
<svg version="1.1" id="Calque_1" xmlns="http://www.w3.org/2000/svg" xmlns:xlink="http://www.w3.org/1999/xlink" x="0px" y="0px"
	 viewBox="0 0 283.5 89.7" style="enable-background:new 0 0 283.5 89.7;" xml:space="preserve">
<style type="text/css">
	.st0{fill:#FFFFFF;}
</style>
<g>
	<g>
		<path class="st0" d="M74.6,40.4l0.6-1c1.3,1.5,3.9,2.5,6.6,2.5c4,0,5.8-1.8,5.8-3.9c0-6-12.6-2.4-12.6-9.9c0-2.8,2.2-5.4,7.2-5.4
			c2.2,0,4.5,0.7,6.1,1.8l-0.6,1.2c-1.6-1.2-3.7-1.6-5.5-1.6c-3.9,0-5.7,1.8-5.7,4c0,6,12.6,2.5,12.6,9.7c0,2.8-2.2,5.4-7.2,5.4
			C79,43.1,76.1,42.1,74.6,40.4z"/>
		<path class="st0" d="M106.7,37.3H95L92.4,43h-1.6l9.3-20.2h1.5l9.3,20.2h-1.6L106.7,37.3z M106.2,36.1L101,24.4l-5.2,11.7H106.2z"
			/>
		<path class="st0" d="M114.6,22.9h1.5v18.8h11.5v1.3h-13L114.6,22.9z"/>
		<path class="st0" d="M145.2,41.6V43h-13.9V22.8h13.5v1.3h-12v7.9h10.8v1.3h-10.8v8.2L145.2,41.6L145.2,41.6z"/>
		<path class="st0" d="M148.5,40.4l0.6-1c1.3,1.5,3.9,2.5,6.6,2.5c4,0,5.8-1.8,5.8-3.9c0-6-12.6-2.4-12.6-9.9c0-2.8,2.2-5.4,7.2-5.4
			c2.2,0,4.5,0.7,6.1,1.8l-0.6,1.2c-1.6-1.2-3.7-1.6-5.5-1.6c-3.9,0-5.7,1.8-5.7,4c0,6,12.6,2.5,12.6,9.7c0,2.8-2.2,5.4-7.2,5.4
			C152.9,43.1,150,42.1,148.5,40.4z"/>
		<path class="st0" d="M74.2,56.9c0-6.1,4.6-10.5,11.1-10.5c3.7,0,6.7,1.3,8.7,3.7l-3.6,3.3c-1.2-1.5-2.8-2.4-4.8-2.4
			c-3.3,0-5.5,2.2-5.5,5.7c0,3.4,2.2,5.7,5.5,5.7c1.9,0,3.4-0.9,4.8-2.4l3.6,3.3c-1.9,2.4-4.9,3.7-8.7,3.7
			C78.8,67.4,74.2,63,74.2,56.9z"/>
		<path class="st0" d="M115.6,46.9v20.2h-5.7v-7.8h-7.8v7.8h-5.7V46.9h5.7v7.6h7.8v-7.6H115.6z"/>
		<path class="st0" d="M133.1,63h-8.5l-1.6,3.9h-5.8l8.8-20.2h5.5l9,20.2h-6L133.1,63z M131.5,58.8l-2.5-6.4l-2.5,6.4H131.5z"/>
		<path class="st0" d="M142.3,46.9h5.7v15.6h9.6v4.5h-15.3V46.9z"/>
		<path class="st0" d="M159.8,46.9h5.7v15.6h9.6v4.5h-15.3V46.9z"/>
		<path class="st0" d="M193.6,62.6v4.3h-16.2V46.7h15.9v4.3h-10.2v3.4h9v4.2h-9v3.7h10.5V62.6z"/>
		<path class="st0" d="M215.9,46.9v20.2h-4.6l-8.8-10.8v10.8h-5.5V46.9h4.6l8.8,10.8V46.9H215.9z"/>
		<path class="st0" d="M233.4,56.4h5.1v8.4c-2.4,1.6-5.5,2.5-8.5,2.5c-6.4,0-11.1-4.3-11.1-10.5s4.6-10.5,11.2-10.5
			c3.7,0,6.9,1.3,8.8,3.7l-3.6,3.3c-1.3-1.5-3-2.2-4.9-2.2c-3.4,0-5.7,2.2-5.7,5.7c0,3.4,2.2,5.7,5.7,5.7c1,0,2.1-0.1,3.1-0.6v-5.5
			H233.4z"/>
		<path class="st0" d="M258.2,62.6v4.3H242V46.7h15.9v4.3h-10.2v3.4h9v4.2h-9v3.7h10.5V62.6z"/>
	</g>
	<path class="st0" d="M63,31l-13.8-7.9c-1.9-1-4.9-1-6.7,0L28.7,31c-1.9,1-3.4,3.7-3.4,5.8v15.9c0,2.1,1.5,4.8,3.4,5.8l13.8,7.9
		c1.9,1,4.9,1,6.7,0L63,58.5c1.9-1,3.4-3.7,3.4-5.8V36.8C66.4,34.8,64.8,32.1,63,31z M51,53.5h-0.1c-2.4,0.4-4.2-0.7-5.2-2.5
		c-0.6,2.2-1.9,4.8-4.3,5.8c-0.9,0.4-0.3,0.1-1.2,0.6c-4.6,2.1-7.2-1.2-6.9-1.6c1,0.6,1.9,0.7,4-0.1c0.9-0.4,1.5-1.6,0.9-3.1
		c-0.1-0.3-0.3-0.9-0.4-1c-2.7-5.2-4.8-13.9,2.1-16.9c0.9-0.4,3,1.2,3.7,2.4c-1.2,0.6-4,2.8-3.6,7.6c0.3,3.3,2.2,5.5,2.5,7.9v0.7
		c1.3-0.4,1.9-2.8,2.2-4.5c-0.6-2.1-0.6-4.5,0-6.7c1-4.3,3.7-9.1,8.1-10c7-1,4,6.7,1.9,8.1c-0.7,0.4-2.1,0-1.9-1.2
		c1.8,0.4,3.6-5.7,1.8-5.4c-4.6,0.7-10,19.1-2.2,18c3.9-0.6,4.6-4.9,4.5-6.1l1.5-0.3C58.6,49.9,55.8,52.7,51,53.5z"/>
</g>
</svg>
