<svg id="LOGO_BLANC" data-name="LOGO BLANC" xmlns="http://www.w3.org/2000/svg" xmlns:xlink="http://www.w3.org/1999/xlink" viewBox="0 0 345.46 152.56"><defs><style>.cls-1{fill:none;}.cls-2{clip-path:url(#clip-path);}.cls-3{fill:#652255;}.cls-4{fill:#474441;}</style><clipPath id="clip-path" transform="translate(-128.81 -224.11)"><path class="cls-1" d="M532.71,434.47H70.36V165.66H532.71Z"/></clipPath></defs><title>LOGO VIA AUTOMOBILE - CMJN</title><g id="LOGO_ZONE_DE_RESERVE" data-name="LOGO+ZONE DE RESERVE"><g class="cls-2"><g id="LOGO_VIA_AUTOMOBILE" data-name="LOGO VIA AUTOMOBILE"><g id="GRIFFE"><path class="cls-3" d="M205.32,375.68h-.72a76,76,0,0,1-17.71-2.09c107.19-47.31,65.23-89.57,54.77-98.24C293.17,316.46,226,363,205.32,375.68Z" transform="translate(-128.81 -224.11)"/><path class="cls-3" d="M280.39,299.9a75.65,75.65,0,0,1-27.28,58.23c51.63-68.21-32.9-96.26-32.9-96.26,86.07,55.61-36.08,93.68-59,100.16A75.79,75.79,0,1,1,280.39,299.9Z" transform="translate(-128.81 -224.11)"/></g><g id="AUTOMOBILE"><path class="cls-4" d="M313.06,375.66a14.25,14.25,0,0,0,5.38,1,14,14,0,0,0,5.33-1,14.18,14.18,0,0,0,7.47-7.48,14.72,14.72,0,0,0,0-10.69A14,14,0,0,0,323.7,350a14.7,14.7,0,0,0-5.47-1,13.55,13.55,0,0,0-11.85,6.9,14.06,14.06,0,0,0-1.83,7,13.79,13.79,0,0,0,8.51,12.69Zm-4.38-15.44a10,10,0,0,1,2.58-4.54,10.24,10.24,0,0,1,2.1-1.61,9.81,9.81,0,0,1,5-1.37,10.11,10.11,0,0,1,5.08,1.37,9.88,9.88,0,0,1,3.71,3.65,10.1,10.1,0,0,1,1.32,5.12,10.36,10.36,0,0,1-1.32,5.18,9.65,9.65,0,0,1-1.57,2.07,9.88,9.88,0,0,1-2.09,1.59,10.21,10.21,0,0,1-5.12,1.34,9.64,9.64,0,0,1-7.07-2.91,9.82,9.82,0,0,1-2.2-3.24,10.24,10.24,0,0,1-.73-3.91A11.13,11.13,0,0,1,308.68,360.22Z" transform="translate(-128.81 -224.11)"/><path class="cls-4" d="M235.24,376a.6.6,0,0,0,.54-.34l3.75-7.93h10.08l3.79,7.93a.6.6,0,0,0,.54.34h2.72a.6.6,0,0,0,.51-.28.61.61,0,0,0,.1-.32.6.6,0,0,0-.06-.25L245.47,350a.6.6,0,0,0-.54-.35h-.62a.6.6,0,0,0-.54.34l-11.88,25.15a.61.61,0,0,0-.06.26.6.6,0,0,0,.09.32.6.6,0,0,0,.51.28Zm9.37-19,3.34,7.1h-6.7Z" transform="translate(-128.81 -224.11)"/><path class="cls-4" d="M291.84,376h2.56a.6.6,0,0,0,.6-.6V353.34h5a.6.6,0,0,0,.6-.6v-2.46a.6.6,0,0,0-.6-.6H286.23a.6.6,0,0,0-.6.6v2.46a.6.6,0,0,0,.6.6h5v22.09A.6.6,0,0,0,291.84,376Z" transform="translate(-128.81 -224.11)"/><path class="cls-4" d="M265.78,349.69h-2.51a.6.6,0,0,0-.6.6v15.18a20.62,20.62,0,0,0,.49,5.48,7.62,7.62,0,0,0,3.14,4.17,9.8,9.8,0,0,0,5.55,1.55A8.16,8.16,0,0,0,277,375a8,8,0,0,0,2.84-3.91,19.1,19.1,0,0,0,.69-5.63V350.29a.6.6,0,0,0-.6-.6H277.4a.6.6,0,0,0-.6.6v15.18a17.64,17.64,0,0,1-.24,3.78,5.45,5.45,0,0,1-1,2.05,4.75,4.75,0,0,1-1.7,1.31,5.06,5.06,0,0,1-2.14.48,6,6,0,0,1-2.6-.62,4.59,4.59,0,0,1-1.87-1.47,5,5,0,0,1-.77-2.22v0a29.59,29.59,0,0,1-.1-3.28V350.29A.6.6,0,0,0,265.78,349.69Z" transform="translate(-128.81 -224.11)"/><path class="cls-4" d="M443,349.69h-2.51a.6.6,0,0,0-.6.6v25.15a.6.6,0,0,0,.6.6h12.19a.6.6,0,0,0,.6-.6V373a.6.6,0,0,0-.6-.6h-9.08V350.29A.6.6,0,0,0,443,349.69Z" transform="translate(-128.81 -224.11)"/><path class="cls-4" d="M473.67,349.69H459.25a.6.6,0,0,0-.6.6v25.15a.6.6,0,0,0,.6.6h14.31a.6.6,0,0,0,.6-.6V373a.6.6,0,0,0-.6-.6h-11.2v-8.68h11.2a.6.6,0,0,0,.6-.6v-2.46a.6.6,0,0,0-.6-.6h-11.2v-6.68h11.3a.6.6,0,0,0,.6-.6v-2.46A.6.6,0,0,0,473.67,349.69Z" transform="translate(-128.81 -224.11)"/><rect class="cls-4" x="300.13" y="125.58" width="3.71" height="26.35" rx="0.6" ry="0.6"/><path class="cls-4" d="M363.49,375.51a.6.6,0,0,0,.59.52h2.46a.6.6,0,0,0,.45-.21.59.59,0,0,0,.15-.39.78.78,0,0,0,0-.09l-3.62-25.15a.6.6,0,0,0-.59-.51h-.4a.6.6,0,0,0-.54.34l-9.59,19.54L342.72,350a.6.6,0,0,0-.54-.33h-.41a.6.6,0,0,0-.59.51l-3.6,25.15a.78.78,0,0,0,0,.09.6.6,0,0,0,.15.39.59.59,0,0,0,.45.21h2.43a.6.6,0,0,0,.59-.52l2.21-16.19,8.13,16.37a.6.6,0,0,0,.54.33h.64a.6.6,0,0,0,.54-.33l8-16.24Z" transform="translate(-128.81 -224.11)"/><path class="cls-4" d="M380.91,375.66a14.24,14.24,0,0,0,5.38,1,14,14,0,0,0,5.33-1,14.18,14.18,0,0,0,7.47-7.48,14.71,14.71,0,0,0,0-10.69,13.93,13.93,0,0,0-7.53-7.44,14.71,14.71,0,0,0-5.47-1,13.55,13.55,0,0,0-11.86,6.9,14.06,14.06,0,0,0-1.83,7,13.79,13.79,0,0,0,8.51,12.69Zm-4.38-15.44a10,10,0,0,1,2.57-4.54,10.52,10.52,0,0,1,4.53-2.64,9.66,9.66,0,0,1,2.56-.34,10.11,10.11,0,0,1,5.08,1.37,10.42,10.42,0,0,1,2.13,1.6,9.56,9.56,0,0,1,1.58,2.05,10.1,10.1,0,0,1,1.32,5.12A10.36,10.36,0,0,1,395,368a9.59,9.59,0,0,1-1.57,2.07,9.87,9.87,0,0,1-2.09,1.59A10.22,10.22,0,0,1,386.2,373a9.64,9.64,0,0,1-7.07-2.91,9.83,9.83,0,0,1-2.2-3.24,10.24,10.24,0,0,1-.73-3.91A11.06,11.06,0,0,1,376.53,360.22Z" transform="translate(-128.81 -224.11)"/><path class="cls-4" d="M420,359.8a6.5,6.5,0,0,0,.9-3.36,6.57,6.57,0,0,0-1-3.58,6.24,6.24,0,0,0-2.8-2.41,12.21,12.21,0,0,0-4.84-.76h-5a.6.6,0,0,0-.6.6v25.15a.6.6,0,0,0,.6.6h6.91a8.9,8.9,0,0,0,6.35-2.26,7.39,7.39,0,0,0,2.4-5.55,7.13,7.13,0,0,0-.64-3,6.85,6.85,0,0,0-1.8-2.38,8.41,8.41,0,0,0-2.09-1.24A6.28,6.28,0,0,0,420,359.8Zm-9.66-6.45h2.31a5.56,5.56,0,0,1,3.47.85,2.71,2.71,0,0,1,1,2.24,3.42,3.42,0,0,1-.61,2,3.55,3.55,0,0,1-1.68,1.32,10.78,10.78,0,0,1-3.63.45h-.84Zm8.8,14.92a3.7,3.7,0,0,1-.67,2.14,4,4,0,0,1-1.8,1.47,10.69,10.69,0,0,1-3.81.49H410.3v-8.44h.82a21.71,21.71,0,0,1,4.33.29,5.07,5.07,0,0,1,2.7,1.52A3.67,3.67,0,0,1,419.1,368.27Z" transform="translate(-128.81 -224.11)"/></g><g id="VIA"><path class="cls-3" d="M367.82,263.4H359.9a1.2,1.2,0,0,0-1.1.72l-23.4,53.68-23-53.67a1.2,1.2,0,0,0-1.1-.73h-7.92a1.2,1.2,0,0,0-1.1,1.67l31.21,72.77a1.2,1.2,0,0,0,1.1.73h1.58a1.2,1.2,0,0,0,1.1-.72l31.66-72.77a1.2,1.2,0,0,0-1.1-1.68Z" transform="translate(-128.81 -224.11)"/><rect class="cls-3" x="257.99" y="58.24" width="9.32" height="56.22" rx="1.2" ry="1.2"/><path class="cls-3" d="M473.07,282.34h-6.83a1.2,1.2,0,0,0-1.2,1.2V290a29.71,29.71,0,0,0-2.39-2.4,26.06,26.06,0,0,0-5.28-3.69,25.19,25.19,0,0,0-6-2.22,28.71,28.71,0,0,0-6.59-.74,30.3,30.3,0,0,0-5.76.54,27,27,0,0,0-10.27,4.32,32.06,32.06,0,0,0-8.17,8.27,27.62,27.62,0,0,0-4.27,10.39,31.38,31.38,0,0,0-.53,5.83,32.89,32.89,0,0,0,.53,5.93,28.87,28.87,0,0,0,1.58,5.49,28.44,28.44,0,0,0,2.64,5,31,31,0,0,0,3.68,4.54,30.68,30.68,0,0,0,4.43,3.77,26.65,26.65,0,0,0,10.21,4.34,30,30,0,0,0,5.74.54,29.29,29.29,0,0,0,6.44-.7,26.82,26.82,0,0,0,5.94-2.1,28.64,28.64,0,0,0,5.38-3.47,32,32,0,0,0,2.66-2.44v6.12a1.2,1.2,0,0,0,1.2,1.2h6.83a1.2,1.2,0,0,0,1.2-1.2V283.54A1.2,1.2,0,0,0,473.07,282.34Zm-8.23,33.91a19.83,19.83,0,0,1-1.94,4.9,18.55,18.55,0,0,1-3.13,4.12,19.86,19.86,0,0,1-4.25,3.18,21.24,21.24,0,0,1-5,2,20.28,20.28,0,0,1-5.23.68,19.47,19.47,0,0,1-5.14-.68,20,20,0,0,1-9-5.31,21.16,21.16,0,0,1-3.23-4.37,21.91,21.91,0,0,1-2.07-5,20.6,20.6,0,0,1,0-10.53,21.45,21.45,0,0,1,2.05-5,20.71,20.71,0,0,1,3.2-4.32,19.4,19.4,0,0,1,4.14-3.22,19.79,19.79,0,0,1,4.82-2,20.5,20.5,0,0,1,5.25-.67,22.15,22.15,0,0,1,4.1.37,19,19,0,0,1,3.73,1.11,18.53,18.53,0,0,1,3.39,1.84,21.25,21.25,0,0,1,5.62,5.74,19.14,19.14,0,0,1,1.81,3.5,22.1,22.1,0,0,1,1.46,8.13A23,23,0,0,1,464.84,316.25Z" transform="translate(-128.81 -224.11)"/><path class="cls-3" d="M391.43,260.18a6.63,6.63,0,0,0-4.84,2,6.89,6.89,0,0,0,0,9.76,6.89,6.89,0,0,0,11.75-4.85,6.93,6.93,0,0,0-6.91-6.94Z" transform="translate(-128.81 -224.11)"/></g></g></g></g></svg>